<?xml version="1.0" encoding="UTF-8"?>
<svg xmlns="http://www.w3.org/2000/svg" xmlns:xlink="http://www.w3.org/1999/xlink" width="64px" height="64px" viewBox="0 0 64 64" version="1.1">
<defs>
<clipPath id="clip1">
  <path d="M 9 5 L 55 5 L 55 59 L 9 59 Z M 9 5 "/>
</clipPath>
<clipPath id="clip2">
  <path d="M 7.5 0 L 56.5 0 C 60.640625 0 64 3.359375 64 7.5 L 64 56.5 C 64 60.640625 60.640625 64 56.5 64 L 7.5 64 C 3.359375 64 0 60.640625 0 56.5 L 0 7.5 C 0 3.359375 3.359375 0 7.5 0 Z M 7.5 0 "/>
</clipPath>
<clipPath id="clip3">
  <path d="M 38 41 L 54 41 L 54 59 L 38 59 Z M 38 41 "/>
</clipPath>
<clipPath id="clip4">
  <path d="M 7.5 0 L 56.5 0 C 60.640625 0 64 3.359375 64 7.5 L 64 56.5 C 64 60.640625 60.640625 64 56.5 64 L 7.5 64 C 3.359375 64 0 60.640625 0 56.5 L 0 7.5 C 0 3.359375 3.359375 0 7.5 0 Z M 7.5 0 "/>
</clipPath>
<clipPath id="clip5">
  <path d="M 10 41 L 27 41 L 27 58 L 10 58 Z M 10 41 "/>
</clipPath>
<clipPath id="clip6">
  <path d="M 7.5 0 L 56.5 0 C 60.640625 0 64 3.359375 64 7.5 L 64 56.5 C 64 60.640625 60.640625 64 56.5 64 L 7.5 64 C 3.359375 64 0 60.640625 0 56.5 L 0 7.5 C 0 3.359375 3.359375 0 7.5 0 Z M 7.5 0 "/>
</clipPath>
<clipPath id="clip7">
  <path d="M 25 16 L 37 16 L 37 25 L 25 25 Z M 25 16 "/>
</clipPath>
<clipPath id="clip8">
  <path d="M 7.5 0 L 56.5 0 C 60.640625 0 64 3.359375 64 7.5 L 64 56.5 C 64 60.640625 60.640625 64 56.5 64 L 7.5 64 C 3.359375 64 0 60.640625 0 56.5 L 0 7.5 C 0 3.359375 3.359375 0 7.5 0 Z M 7.5 0 "/>
</clipPath>
<clipPath id="clip9">
  <path d="M 26 19 L 36 19 L 36 23 L 26 23 Z M 26 19 "/>
</clipPath>
<clipPath id="clip10">
  <path d="M 7.5 0 L 56.5 0 C 60.640625 0 64 3.359375 64 7.5 L 64 56.5 C 64 60.640625 60.640625 64 56.5 64 L 7.5 64 C 3.359375 64 0 60.640625 0 56.5 L 0 7.5 C 0 3.359375 3.359375 0 7.5 0 Z M 7.5 0 "/>
</clipPath>
<clipPath id="clip11">
  <path d="M 22 32 L 42 32 L 42 53 L 22 53 Z M 22 32 "/>
</clipPath>
<clipPath id="clip12">
  <path d="M 7.5 0 L 56.5 0 C 60.640625 0 64 3.359375 64 7.5 L 64 56.5 C 64 60.640625 60.640625 64 56.5 64 L 7.5 64 C 3.359375 64 0 60.640625 0 56.5 L 0 7.5 C 0 3.359375 3.359375 0 7.5 0 Z M 7.5 0 "/>
</clipPath>
<clipPath id="clip13">
  <path d="M 31 12 L 37 12 L 37 19 L 31 19 Z M 31 12 "/>
</clipPath>
<clipPath id="clip14">
  <path d="M 7.5 0 L 56.5 0 C 60.640625 0 64 3.359375 64 7.5 L 64 56.5 C 64 60.640625 60.640625 64 56.5 64 L 7.5 64 C 3.359375 64 0 60.640625 0 56.5 L 0 7.5 C 0 3.359375 3.359375 0 7.5 0 Z M 7.5 0 "/>
</clipPath>
<clipPath id="clip15">
  <path d="M 25 13 L 30 13 L 30 19 L 25 19 Z M 25 13 "/>
</clipPath>
<clipPath id="clip16">
  <path d="M 7.5 0 L 56.5 0 C 60.640625 0 64 3.359375 64 7.5 L 64 56.5 C 64 60.640625 60.640625 64 56.5 64 L 7.5 64 C 3.359375 64 0 60.640625 0 56.5 L 0 7.5 C 0 3.359375 3.359375 0 7.5 0 Z M 7.5 0 "/>
</clipPath>
<clipPath id="clip17">
  <path d="M 31 17 L 33 17 L 33 19 L 31 19 Z M 31 17 "/>
</clipPath>
<clipPath id="clip18">
  <path d="M 7.5 0 L 56.5 0 C 60.640625 0 64 3.359375 64 7.5 L 64 56.5 C 64 60.640625 60.640625 64 56.5 64 L 7.5 64 C 3.359375 64 0 60.640625 0 56.5 L 0 7.5 C 0 3.359375 3.359375 0 7.5 0 Z M 7.5 0 "/>
</clipPath>
<clipPath id="clip19">
  <path d="M 28 17 L 30 17 L 30 19 L 28 19 Z M 28 17 "/>
</clipPath>
<clipPath id="clip20">
  <path d="M 7.5 0 L 56.5 0 C 60.640625 0 64 3.359375 64 7.5 L 64 56.5 C 64 60.640625 60.640625 64 56.5 64 L 7.5 64 C 3.359375 64 0 60.640625 0 56.5 L 0 7.5 C 0 3.359375 3.359375 0 7.5 0 Z M 7.5 0 "/>
</clipPath>
<clipPath id="clip21">
  <path d="M 18 21 L 49 21 L 49 54 L 18 54 Z M 18 21 "/>
</clipPath>
<clipPath id="clip22">
  <path d="M 7.5 0 L 56.5 0 C 60.640625 0 64 3.359375 64 7.5 L 64 56.5 C 64 60.640625 60.640625 64 56.5 64 L 7.5 64 C 3.359375 64 0 60.640625 0 56.5 L 0 7.5 C 0 3.359375 3.359375 0 7.5 0 Z M 7.5 0 "/>
</clipPath>
<clipPath id="clip23">
  <path d="M 17 26 L 47 26 L 47 54 L 17 54 Z M 17 26 "/>
</clipPath>
</defs>
<g id="surface1">
<g clip-path="url(#clip1)" clip-rule="nonzero">
<g clip-path="url(#clip2)" clip-rule="nonzero">
<path style=" stroke:none;fill-rule:nonzero;fill:rgb(12.54902%,12.54902%,12.54902%);fill-opacity:1;" d="M 52.484375 47.554688 C 52.101562 47.125 51.921875 46.328125 51.726562 45.476562 C 51.53125 44.628906 51.3125 43.710938 50.613281 43.117188 C 50.613281 43.117188 50.609375 43.117188 50.609375 43.117188 C 50.472656 42.996094 50.328125 42.894531 50.1875 42.808594 C 50.042969 42.722656 49.898438 42.652344 49.753906 42.597656 C 50.722656 39.726562 50.34375 36.863281 49.363281 34.28125 C 48.164062 31.105469 46.066406 28.34375 44.464844 26.449219 C 42.667969 24.191406 40.917969 22.046875 40.949219 18.878906 C 41.003906 14.042969 41.484375 5.074219 32.964844 5.0625 C 32.621094 5.0625 32.257812 5.078125 31.882812 5.105469 C 22.363281 5.871094 24.886719 15.917969 24.746094 19.28125 C 24.574219 21.742188 24.074219 23.679688 22.378906 26.085938 C 20.390625 28.449219 17.589844 32.277344 16.261719 36.257812 C 15.636719 38.136719 15.335938 40.054688 15.613281 41.867188 C 15.527344 41.945312 15.445312 42.023438 15.367188 42.109375 C 14.78125 42.730469 14.351562 43.484375 13.871094 43.996094 C 13.421875 44.441406 12.78125 44.613281 12.078125 44.863281 C 11.371094 45.117188 10.601562 45.488281 10.132812 46.386719 C 10.132812 46.386719 10.132812 46.386719 10.128906 46.386719 C 10.128906 46.390625 10.128906 46.390625 10.128906 46.394531 C 9.90625 46.804688 9.835938 47.246094 9.835938 47.699219 C 9.835938 48.113281 9.898438 48.535156 9.960938 48.941406 C 10.089844 49.789062 10.21875 50.585938 10.046875 51.128906 C 9.488281 52.648438 9.417969 53.703125 9.808594 54.464844 C 10.203125 55.230469 11.011719 55.566406 11.925781 55.757812 C 13.75 56.136719 16.222656 56.042969 18.171875 57.078125 C 18.171875 57.078125 18.339844 56.761719 18.339844 56.761719 C 18.339844 56.761719 18.175781 57.078125 18.175781 57.078125 C 20.261719 58.167969 22.375 58.554688 24.066406 58.167969 C 25.289062 57.890625 26.28125 57.164062 26.792969 56.042969 C 28.113281 56.035156 29.5625 55.476562 31.882812 55.347656 C 33.457031 55.222656 35.421875 55.910156 37.683594 55.78125 C 37.742188 56.027344 37.828125 56.261719 37.945312 56.488281 C 37.945312 56.488281 37.949219 56.492188 37.949219 56.492188 C 38.828125 58.246094 40.457031 59.046875 42.191406 58.910156 C 43.929688 58.773438 45.777344 57.75 47.273438 55.972656 C 47.273438 55.972656 47 55.742188 47 55.742188 C 47 55.742188 47.277344 55.96875 47.277344 55.96875 C 48.699219 54.246094 51.0625 53.53125 52.632812 52.585938 C 53.414062 52.113281 54.050781 51.523438 54.101562 50.664062 C 54.148438 49.804688 53.644531 48.84375 52.484375 47.554688 Z M 52.484375 47.554688 "/>
</g>
</g>
<g clip-path="url(#clip3)" clip-rule="nonzero">
<g clip-path="url(#clip4)" clip-rule="nonzero">
<path style=" stroke:none;fill-rule:nonzero;fill:rgb(97.254902%,74.901962%,6.666667%);fill-opacity:1;" d="M 53.386719 50.621094 C 53.355469 51.152344 52.972656 51.546875 52.261719 51.972656 C 50.84375 52.828125 48.328125 53.570312 46.726562 55.511719 C 45.332031 57.167969 43.632812 58.078125 42.136719 58.199219 C 40.640625 58.316406 39.347656 57.695312 38.585938 56.167969 C 38.585938 56.167969 38.585938 56.164062 38.585938 56.164062 C 38.585938 56.164062 38.582031 56.160156 38.582031 56.160156 C 38.109375 55.265625 38.308594 53.847656 38.703125 52.355469 C 39.101562 50.859375 39.675781 49.324219 39.75 48.078125 C 39.75 48.078125 39.75 48.074219 39.75 48.074219 C 39.832031 46.476562 39.921875 45.082031 40.191406 44.003906 C 40.460938 42.929688 40.882812 42.199219 41.632812 41.789062 C 41.667969 41.769531 41.699219 41.753906 41.734375 41.734375 C 41.820312 43.121094 42.507812 44.53125 43.71875 44.835938 C 45.042969 45.183594 46.957031 44.050781 47.761719 43.121094 C 47.925781 43.113281 48.082031 43.105469 48.234375 43.101562 C 48.941406 43.085938 49.535156 43.128906 50.144531 43.65625 C 50.144531 43.65625 50.144531 43.660156 50.144531 43.660156 C 50.613281 44.054688 50.835938 44.800781 51.027344 45.636719 C 51.21875 46.472656 51.371094 47.382812 51.949219 48.03125 C 53.058594 49.261719 53.414062 50.089844 53.386719 50.621094 Z M 53.386719 50.621094 "/>
</g>
</g>
<g clip-path="url(#clip5)" clip-rule="nonzero">
<g clip-path="url(#clip6)" clip-rule="nonzero">
<path style=" stroke:none;fill-rule:nonzero;fill:rgb(97.254902%,74.901962%,6.666667%);fill-opacity:1;" d="M 26.4375 54.539062 L 26.4375 54.542969 C 26.4375 54.542969 26.4375 54.546875 26.4375 54.546875 C 26.308594 56.226562 25.359375 57.140625 23.90625 57.472656 C 22.449219 57.804688 20.476562 57.472656 18.507812 56.445312 C 16.328125 55.289062 13.734375 55.40625 12.070312 55.058594 C 11.238281 54.882812 10.695312 54.625 10.445312 54.140625 C 10.199219 53.652344 10.191406 52.808594 10.722656 51.367188 C 10.722656 51.367188 10.722656 51.359375 10.722656 51.359375 C 10.722656 51.359375 10.726562 51.351562 10.726562 51.351562 C 10.988281 50.546875 10.792969 49.664062 10.667969 48.835938 C 10.539062 48.007812 10.476562 47.25 10.761719 46.726562 C 10.761719 46.726562 10.765625 46.722656 10.765625 46.722656 C 11.125 46.023438 11.660156 45.773438 12.316406 45.539062 C 12.980469 45.300781 13.761719 45.113281 14.378906 44.496094 C 14.378906 44.496094 14.382812 44.492188 14.382812 44.492188 C 14.382812 44.492188 14.386719 44.488281 14.386719 44.488281 C 14.957031 43.886719 15.386719 43.132812 15.890625 42.597656 C 16.3125 42.144531 16.738281 41.84375 17.375 41.839844 C 17.382812 41.839844 17.390625 41.839844 17.398438 41.839844 C 17.507812 41.839844 17.628906 41.851562 17.753906 41.871094 C 18.601562 42 19.34375 42.589844 20.054688 43.554688 C 20.054688 43.554688 22.113281 47.304688 22.113281 47.304688 C 22.664062 48.449219 23.820312 49.703125 24.796875 50.988281 C 25.777344 52.265625 26.535156 53.554688 26.4375 54.539062 Z M 26.4375 54.539062 "/>
</g>
</g>
<g clip-path="url(#clip7)" clip-rule="nonzero">
<g clip-path="url(#clip8)" clip-rule="nonzero">
<path style=" stroke:none;fill-rule:nonzero;fill:rgb(97.254902%,74.901962%,6.666667%);fill-opacity:1;" d="M 36.699219 19.609375 C 36.535156 19.289062 36.199219 18.980469 35.621094 18.746094 C 35.621094 18.746094 35.621094 18.742188 35.621094 18.742188 C 34.425781 18.230469 33.90625 18.195312 33.238281 17.761719 C 32.152344 17.066406 31.257812 16.820312 30.511719 16.824219 C 30.121094 16.824219 29.773438 16.894531 29.460938 17.003906 C 28.550781 17.3125 27.949219 17.964844 27.570312 18.324219 C 27.496094 18.394531 27.402344 18.460938 27.167969 18.628906 C 26.9375 18.796875 26.585938 19.054688 26.082031 19.433594 C 25.636719 19.765625 25.492188 20.203125 25.648438 20.710938 C 25.800781 21.222656 26.292969 21.8125 27.195312 22.320312 C 27.195312 22.320312 27.195312 22.324219 27.195312 22.324219 C 27.195312 22.324219 27.199219 22.324219 27.199219 22.324219 C 27.757812 22.652344 28.140625 23.09375 28.578125 23.445312 C 28.796875 23.621094 29.027344 23.78125 29.304688 23.898438 C 29.582031 24.015625 29.90625 24.097656 30.3125 24.121094 C 31.265625 24.175781 31.96875 23.890625 32.585938 23.535156 C 33.207031 23.183594 33.734375 22.75 34.335938 22.554688 C 34.335938 22.554688 34.339844 22.554688 34.339844 22.554688 C 35.574219 22.167969 36.457031 21.390625 36.730469 20.652344 C 36.871094 20.285156 36.863281 19.933594 36.699219 19.609375 Z M 36.699219 19.609375 "/>
</g>
</g>
<g clip-path="url(#clip9)" clip-rule="nonzero">
<g clip-path="url(#clip10)" clip-rule="nonzero">
<path style=" stroke:none;fill-rule:nonzero;fill:rgb(12.54902%,12.54902%,12.54902%);fill-opacity:1;" d="M 33.566406 21.433594 C 32.582031 21.945312 31.433594 22.566406 30.210938 22.566406 C 28.992188 22.566406 28.027344 22 27.332031 21.453125 C 26.984375 21.179688 26.703125 20.90625 26.492188 20.707031 C 26.121094 20.414062 26.167969 20.007812 26.316406 20.019531 C 26.570312 20.050781 26.609375 20.386719 26.769531 20.535156 C 26.988281 20.738281 27.257812 21 27.585938 21.257812 C 28.242188 21.777344 29.117188 22.285156 30.210938 22.285156 C 31.304688 22.285156 32.582031 21.640625 33.359375 21.207031 C 33.804688 20.957031 34.363281 20.515625 34.824219 20.179688 C 35.171875 19.921875 35.160156 19.613281 35.449219 19.644531 C 35.738281 19.679688 35.527344 19.988281 35.121094 20.339844 C 34.714844 20.695312 34.082031 21.164062 33.566406 21.433594 Z M 33.566406 21.433594 "/>
</g>
</g>
<g clip-path="url(#clip11)" clip-rule="nonzero">
<g clip-path="url(#clip12)" clip-rule="nonzero">
<path style=" stroke:none;fill-rule:nonzero;fill:rgb(90.196079%,90.196079%,90.196079%);fill-opacity:1;" d="M 32.03125 32.238281 C 27.636719 32.253906 23.695312 36.238281 22.085938 42.285156 C 22.085938 42.285156 22.320312 42.433594 22.320312 42.433594 C 22.320312 42.433594 22.320312 42.445312 22.320312 42.445312 C 24.136719 43.597656 25.429688 44.75 26.226562 45.832031 C 27.070312 46.972656 27.445312 48.085938 27.089844 49.046875 C 26.90625 49.53125 26.523438 49.921875 26.042969 50.140625 C 25.992188 50.164062 25.9375 50.179688 25.886719 50.199219 C 26.171875 50.574219 26.453125 50.960938 26.710938 51.355469 C 30.355469 53.78125 34.59375 52.882812 37.777344 50.691406 C 38.085938 49.621094 38.371094 48.625 38.410156 48 C 38.488281 46.398438 38.570312 44.945312 38.886719 43.679688 C 39.203125 42.40625 39.820312 41.25 40.984375 40.613281 C 40.984375 40.613281 40.988281 40.613281 40.988281 40.613281 C 41.050781 40.574219 41.117188 40.554688 41.183594 40.523438 C 41.203125 40.398438 41.234375 40.277344 41.269531 40.160156 C 39.363281 35.277344 35.84375 32.261719 32.03125 32.238281 Z M 41.175781 40.550781 C 41.175781 40.550781 41.171875 40.570312 41.171875 40.570312 C 41.175781 40.566406 41.175781 40.566406 41.175781 40.5625 C 41.175781 40.558594 41.175781 40.554688 41.175781 40.550781 Z M 41.175781 40.550781 "/>
</g>
</g>
<g clip-path="url(#clip13)" clip-rule="nonzero">
<g clip-path="url(#clip14)" clip-rule="nonzero">
<path style=" stroke:none;fill-rule:nonzero;fill:rgb(100%,100%,100%);fill-opacity:1;" d="M 36.808594 15.925781 C 36.8125 16.5625 36.707031 17.101562 36.464844 17.652344 C 36.328125 17.964844 36.167969 18.230469 35.980469 18.457031 C 35.917969 18.425781 35.851562 18.398438 35.78125 18.367188 C 35.542969 18.265625 35.328125 18.183594 35.140625 18.109375 C 34.949219 18.039062 34.800781 17.988281 34.648438 17.9375 C 34.757812 17.804688 34.976562 17.644531 35.058594 17.449219 C 35.183594 17.148438 35.242188 16.859375 35.253906 16.511719 C 35.253906 16.496094 35.257812 16.484375 35.257812 16.46875 C 35.265625 16.136719 35.222656 15.851562 35.125 15.5625 C 35.023438 15.253906 34.890625 15.035156 34.703125 14.851562 C 34.515625 14.667969 34.328125 14.585938 34.105469 14.578125 C 34.09375 14.578125 34.082031 14.578125 34.074219 14.578125 C 33.863281 14.578125 33.679688 14.652344 33.488281 14.808594 C 33.289062 14.976562 33.140625 15.191406 33.019531 15.484375 C 32.894531 15.78125 32.835938 16.078125 32.824219 16.425781 C 32.820312 16.4375 32.820312 16.453125 32.820312 16.464844 C 32.816406 16.65625 32.828125 16.832031 32.859375 17.003906 C 32.425781 16.789062 31.875 16.632812 31.492188 16.539062 C 31.46875 16.375 31.457031 16.203125 31.453125 16.027344 C 31.453125 16.027344 31.453125 15.976562 31.453125 15.976562 C 31.445312 15.347656 31.550781 14.804688 31.792969 14.253906 C 32.035156 13.703125 32.335938 13.308594 32.761719 12.984375 C 33.183594 12.664062 33.601562 12.515625 34.09375 12.511719 C 34.09375 12.511719 34.117188 12.511719 34.117188 12.511719 C 34.601562 12.511719 35.015625 12.652344 35.4375 12.960938 C 35.871094 13.273438 36.179688 13.664062 36.429688 14.210938 C 36.675781 14.742188 36.792969 15.265625 36.804688 15.882812 C 36.804688 15.898438 36.804688 15.910156 36.808594 15.925781 Z M 36.808594 15.925781 "/>
</g>
</g>
<g clip-path="url(#clip15)" clip-rule="nonzero">
<g clip-path="url(#clip16)" clip-rule="nonzero">
<path style=" stroke:none;fill-rule:nonzero;fill:rgb(100%,100%,100%);fill-opacity:1;" d="M 29.511719 16.558594 C 29.449219 16.578125 29.386719 16.597656 29.328125 16.617188 C 28.980469 16.734375 28.707031 16.867188 28.441406 17.042969 C 28.46875 16.859375 28.472656 16.675781 28.453125 16.464844 C 28.449219 16.453125 28.449219 16.445312 28.449219 16.433594 C 28.421875 16.160156 28.363281 15.925781 28.265625 15.695312 C 28.164062 15.449219 28.046875 15.28125 27.894531 15.148438 C 27.753906 15.027344 27.625 14.972656 27.480469 14.972656 C 27.464844 14.972656 27.449219 14.976562 27.433594 14.976562 C 27.273438 14.988281 27.136719 15.070312 27.011719 15.222656 C 26.882812 15.378906 26.800781 15.570312 26.738281 15.824219 C 26.679688 16.078125 26.664062 16.328125 26.6875 16.617188 C 26.6875 16.628906 26.691406 16.636719 26.691406 16.648438 C 26.71875 16.925781 26.773438 17.15625 26.875 17.390625 C 26.976562 17.632812 27.09375 17.804688 27.246094 17.933594 C 27.273438 17.957031 27.296875 17.976562 27.324219 17.996094 C 27.164062 18.117188 27.058594 18.203125 26.929688 18.300781 C 26.84375 18.359375 26.746094 18.433594 26.628906 18.519531 C 26.378906 18.28125 26.179688 17.988281 26.007812 17.59375 C 25.804688 17.132812 25.695312 16.671875 25.664062 16.125 C 25.664062 16.125 25.664062 16.121094 25.664062 16.121094 C 25.632812 15.574219 25.6875 15.105469 25.835938 14.617188 C 25.988281 14.132812 26.1875 13.78125 26.480469 13.492188 C 26.773438 13.203125 27.066406 13.054688 27.421875 13.039062 C 27.449219 13.035156 27.476562 13.035156 27.503906 13.035156 C 27.824219 13.035156 28.109375 13.144531 28.40625 13.378906 C 28.730469 13.636719 28.972656 13.964844 29.175781 14.429688 C 29.378906 14.890625 29.488281 15.355469 29.519531 15.898438 C 29.519531 15.898438 29.519531 15.902344 29.519531 15.902344 C 29.535156 16.132812 29.53125 16.347656 29.511719 16.558594 Z M 29.511719 16.558594 "/>
</g>
</g>
<g clip-path="url(#clip17)" clip-rule="nonzero">
<g clip-path="url(#clip18)" clip-rule="nonzero">
<path style=" stroke:none;fill-rule:nonzero;fill:rgb(12.54902%,12.54902%,12.54902%);fill-opacity:1;" d="M 31.125 17.863281 C 31.167969 17.996094 31.378906 17.972656 31.5 18.035156 C 31.605469 18.089844 31.691406 18.210938 31.8125 18.214844 C 31.925781 18.21875 32.101562 18.175781 32.117188 18.0625 C 32.136719 17.914062 31.917969 17.816406 31.777344 17.761719 C 31.597656 17.691406 31.363281 17.65625 31.195312 17.75 C 31.15625 17.773438 31.113281 17.824219 31.125 17.863281 Z M 31.125 17.863281 "/>
</g>
</g>
<g clip-path="url(#clip19)" clip-rule="nonzero">
<g clip-path="url(#clip20)" clip-rule="nonzero">
<path style=" stroke:none;fill-rule:nonzero;fill:rgb(12.54902%,12.54902%,12.54902%);fill-opacity:1;" d="M 29.882812 17.863281 C 29.84375 17.996094 29.632812 17.972656 29.511719 18.035156 C 29.40625 18.089844 29.320312 18.210938 29.199219 18.214844 C 29.085938 18.21875 28.90625 18.175781 28.890625 18.0625 C 28.871094 17.914062 29.089844 17.816406 29.230469 17.761719 C 29.414062 17.691406 29.644531 17.65625 29.816406 17.75 C 29.855469 17.773438 29.898438 17.824219 29.882812 17.863281 Z M 29.882812 17.863281 "/>
</g>
</g>
<g clip-path="url(#clip21)" clip-rule="nonzero">
<g clip-path="url(#clip22)" clip-rule="nonzero">
<path style=" stroke:none;fill-rule:nonzero;fill:rgb(100%,100%,100%);fill-opacity:1;" d="M 48.617188 42.390625 C 48.480469 42.386719 48.347656 42.386719 48.214844 42.386719 C 48.203125 42.390625 48.191406 42.390625 48.179688 42.390625 C 48.515625 41.324219 47.769531 40.539062 45.78125 39.640625 C 43.71875 38.734375 42.074219 38.824219 41.796875 40.664062 C 41.777344 40.757812 41.761719 40.855469 41.753906 40.957031 C 41.597656 41.011719 41.441406 41.078125 41.289062 41.164062 C 40.320312 41.691406 39.789062 42.652344 39.496094 43.832031 C 39.203125 45.011719 39.117188 46.433594 39.035156 48.035156 C 38.988281 48.839844 38.65625 49.929688 38.320312 51.082031 C 34.941406 53.492188 30.25 54.535156 26.265625 51.820312 C 25.996094 51.390625 25.683594 50.96875 25.367188 50.554688 C 25.164062 50.285156 24.953125 50.023438 24.746094 49.761719 C 25.15625 49.761719 25.503906 49.695312 25.785156 49.566406 C 26.132812 49.410156 26.378906 49.15625 26.5 48.828125 C 26.742188 48.175781 26.5 47.253906 25.722656 46.203125 C 24.945312 45.152344 23.625 43.964844 21.691406 42.78125 C 20.269531 41.898438 19.476562 40.816406 19.105469 39.640625 C 18.730469 38.464844 18.785156 37.191406 19.070312 35.9375 C 19.621094 33.527344 21.035156 31.183594 21.9375 29.714844 C 22.179688 29.535156 22.023438 30.042969 21.023438 31.902344 C 20.128906 33.597656 18.453125 37.511719 20.746094 40.570312 C 20.808594 38.394531 21.328125 36.175781 22.199219 34.101562 C 23.472656 31.222656 26.132812 26.226562 26.34375 22.25 C 26.453125 22.328125 26.824219 22.582031 26.992188 22.675781 C 27.480469 22.960938 27.847656 23.382812 28.324219 23.761719 C 28.796875 24.144531 29.390625 24.472656 30.289062 24.527344 C 30.375 24.53125 30.460938 24.535156 30.542969 24.535156 C 31.46875 24.535156 32.1875 24.234375 32.789062 23.890625 C 33.441406 23.515625 33.964844 23.101562 34.460938 22.941406 C 35.507812 22.617188 36.335938 22.039062 36.808594 21.363281 C 37.621094 24.5625 39.507812 29.179688 40.722656 31.433594 C 41.367188 32.628906 42.652344 35.167969 43.207031 38.230469 C 43.558594 38.21875 43.945312 38.269531 44.359375 38.375 C 45.808594 34.621094 43.128906 30.578125 41.902344 29.449219 C 41.410156 28.972656 41.386719 28.757812 41.632812 28.765625 C 42.960938 29.941406 44.707031 32.300781 45.339844 34.96875 C 45.628906 36.183594 45.691406 37.460938 45.382812 38.722656 C 45.53125 38.785156 45.6875 38.855469 45.84375 38.929688 C 48.171875 40.0625 49.03125 41.046875 48.617188 42.390625 Z M 48.617188 42.390625 "/>
</g>
</g>
<path style=" stroke:none;fill-rule:nonzero;fill:rgb(12.54902%,12.54902%,12.54902%);fill-opacity:1;" d="M 46.230469 29.902344 C 45.742188 29.53125 45.113281 29.410156 44.527344 29.574219 C 44.527344 29.574219 34.605469 32.320312 34.605469 32.320312 C 34.296875 32.40625 33.980469 32.449219 33.660156 32.445312 C 33.660156 32.445312 30.328125 32.441406 30.328125 32.441406 C 30.015625 32.4375 29.703125 32.398438 29.402344 32.3125 C 29.402344 32.3125 19.472656 29.5625 19.472656 29.5625 C 18.886719 29.398438 18.257812 29.527344 17.769531 29.894531 C 17.285156 30.265625 17 30.84375 17 31.457031 C 17 31.457031 17 45.976562 17 45.976562 C 17 46.855469 17.585938 47.609375 18.429688 47.84375 C 18.429688 47.84375 29.398438 50.878906 29.398438 50.878906 C 29.703125 50.964844 30.015625 51.007812 30.332031 51.007812 C 30.332031 51.007812 33.667969 51.007812 33.667969 51.007812 C 33.984375 51.007812 34.296875 50.964844 34.601562 50.878906 C 34.601562 50.878906 45.570312 47.84375 45.570312 47.84375 C 46.414062 47.609375 47 46.855469 47 45.976562 C 47 45.976562 47 31.457031 47 31.457031 C 47 30.84375 46.714844 30.269531 46.230469 29.902344 Z M 33.652344 48.167969 C 33.652344 48.457031 33.417969 48.691406 33.125 48.691406 C 33.125 48.691406 30.871094 48.691406 30.871094 48.691406 C 30.582031 48.691406 30.347656 48.457031 30.347656 48.167969 C 30.347656 48.167969 30.347656 44.195312 30.347656 44.195312 C 30.347656 43.90625 30.582031 43.671875 30.871094 43.671875 C 30.871094 43.671875 33.125 43.671875 33.125 43.671875 C 33.417969 43.671875 33.652344 43.90625 33.652344 44.195312 C 33.652344 44.195312 33.652344 48.167969 33.652344 48.167969 Z M 33.652344 41.492188 C 33.652344 41.785156 33.417969 42.019531 33.125 42.019531 C 33.125 42.019531 30.871094 42.019531 30.871094 42.019531 C 30.582031 42.019531 30.347656 41.785156 30.347656 41.492188 C 30.347656 41.492188 30.347656 39.242188 30.347656 39.242188 C 30.347656 38.949219 30.582031 38.714844 30.871094 38.714844 C 30.871094 38.714844 33.125 38.714844 33.125 38.714844 C 33.417969 38.714844 33.652344 38.949219 33.652344 39.242188 C 33.652344 39.242188 33.652344 41.492188 33.652344 41.492188 Z M 33.652344 36.472656 C 33.652344 36.761719 33.417969 36.996094 33.125 36.996094 C 33.125 36.996094 30.871094 36.996094 30.871094 36.996094 C 30.582031 36.996094 30.347656 36.761719 30.347656 36.472656 C 30.347656 36.472656 30.347656 35.34375 30.347656 35.34375 C 30.347656 35.050781 30.582031 34.816406 30.871094 34.816406 C 30.871094 34.816406 33.125 34.816406 33.125 34.816406 C 33.417969 34.816406 33.652344 35.050781 33.652344 35.34375 C 33.652344 35.34375 33.652344 36.472656 33.652344 36.472656 Z M 33.652344 36.472656 "/>
<g clip-path="url(#clip23)" clip-rule="nonzero">
<path style="fill:none;stroke-width:2;stroke-linecap:butt;stroke-linejoin:miter;stroke:rgb(40.784314%,40.784314%,40.784314%);stroke-opacity:1;stroke-miterlimit:4;" d="M 116.921875 1.635374 C 114.96875 0.150999 112.453125 -0.333376 110.109375 0.322874 C 110.109375 0.322874 70.421875 11.307249 70.421875 11.307249 C 69.1875 11.650999 67.921875 11.822874 66.640625 11.807249 C 66.640625 11.807249 53.3125 11.791624 53.3125 11.791624 C 52.0625 11.775999 50.8125 11.619749 49.609375 11.275999 C 49.609375 11.275999 9.890625 0.275999 9.890625 0.275999 C 7.546875 -0.380251 5.03125 0.135374 3.078125 1.604124 C 1.140625 3.088499 0 5.400999 0 7.854124 C 0 7.854124 0 65.932249 0 65.932249 C 0 69.447874 2.34375 72.463499 5.71875 73.400999 C 5.71875 73.400999 49.59375 85.541624 49.59375 85.541624 C 50.8125 85.885374 52.0625 86.057249 53.328125 86.057249 C 53.328125 86.057249 66.671875 86.057249 66.671875 86.057249 C 67.9375 86.057249 69.1875 85.885374 70.40625 85.541624 C 70.40625 85.541624 114.28125 73.400999 114.28125 73.400999 C 117.65625 72.463499 120 69.447874 120 65.932249 C 120 65.932249 120 7.854124 120 7.854124 C 120 5.400999 118.859375 3.104124 116.921875 1.635374 Z M 66.609375 74.697874 C 66.609375 75.854124 65.671875 76.791624 64.5 76.791624 C 64.5 76.791624 55.484375 76.791624 55.484375 76.791624 C 54.328125 76.791624 53.390625 75.854124 53.390625 74.697874 C 53.390625 74.697874 53.390625 58.807249 53.390625 58.807249 C 53.390625 57.650999 54.328125 56.713499 55.484375 56.713499 C 55.484375 56.713499 64.5 56.713499 64.5 56.713499 C 65.671875 56.713499 66.609375 57.650999 66.609375 58.807249 C 66.609375 58.807249 66.609375 74.697874 66.609375 74.697874 Z M 66.609375 47.994749 C 66.609375 49.166624 65.671875 50.104124 64.5 50.104124 C 64.5 50.104124 55.484375 50.104124 55.484375 50.104124 C 54.328125 50.104124 53.390625 49.166624 53.390625 47.994749 C 53.390625 47.994749 53.390625 38.994749 53.390625 38.994749 C 53.390625 37.822874 54.328125 36.885374 55.484375 36.885374 C 55.484375 36.885374 64.5 36.885374 64.5 36.885374 C 65.671875 36.885374 66.609375 37.822874 66.609375 38.994749 C 66.609375 38.994749 66.609375 47.994749 66.609375 47.994749 Z M 66.609375 27.916624 C 66.609375 29.072874 65.671875 30.010374 64.5 30.010374 C 64.5 30.010374 55.484375 30.010374 55.484375 30.010374 C 54.328125 30.010374 53.390625 29.072874 53.390625 27.916624 C 53.390625 27.916624 53.390625 23.400999 53.390625 23.400999 C 53.390625 22.229124 54.328125 21.291624 55.484375 21.291624 C 55.484375 21.291624 64.5 21.291624 64.5 21.291624 C 65.671875 21.291624 66.609375 22.229124 66.609375 23.400999 C 66.609375 23.400999 66.609375 27.916624 66.609375 27.916624 Z M 66.609375 27.916624 " transform="matrix(0.25,0,0,0.25,17,29.4935)"/>
</g>
<path style=" stroke:none;fill-rule:evenodd;fill:rgb(12.54902%,12.54902%,12.54902%);fill-opacity:1;" d="M 20.203125 35.808594 L 27.695312 36.199219 L 27.304688 43.691406 L 19.8125 43.300781 Z M 20.203125 35.808594 "/>
<path style=" stroke:none;fill-rule:nonzero;fill:rgb(100%,100%,100%);fill-opacity:1;" d="M 20.273438 41.585938 L 22.386719 39.679688 L 20.480469 37.5625 L 21.179688 36.9375 L 23.710938 39.75 L 20.902344 42.28125 Z M 20.273438 41.585938 "/>
<path style=" stroke:none;fill-rule:nonzero;fill:rgb(100%,100%,100%);fill-opacity:1;" d="M 23.113281 43.003906 L 26.859375 43.199219 L 26.910156 42.261719 L 23.164062 42.066406 Z M 23.113281 43.003906 "/>
</g>
</svg>
