<?xml version="1.0" encoding="utf-8"?>
<svg width="256" height="256" viewBox="0 0 256 256" fill="none" xmlns="http://www.w3.org/2000/svg">
  <defs>
    <clipPath id="clip_path_1">
      <rect width="256" height="256" rx="30" />
    </clipPath>
    <clipPath id="clip_path_2">
      <rect width="120" height="120" />
    </clipPath>
  </defs>
  <g id="SingleElement">
    <g clip-path="url(#clip_path_1)">
      <rect width="256" height="256" />
      <g transform="translate(38 20)">
        <rect width="179" height="216" />
        <path id="path3" d="M171.687 169.972C171.685 169.969 171.682 169.967 171.682 169.964C170.156 168.244 169.429 165.054 168.648 161.656C167.868 158.26 166.996 154.598 164.205 152.225C164.2 152.22 164.192 152.215 164.188 152.21C163.635 151.727 163.066 151.321 162.496 150.981C161.923 150.642 161.342 150.366 160.761 150.147C164.64 138.654 163.119 127.209 159.203 116.868C154.398 104.175 146.009 93.1162 139.601 85.5511C132.428 76.5118 125.414 67.9321 125.552 55.2584C125.766 35.9164 127.681 0.0477994 93.6109 7.84695e-05C92.2257 -0.00243317 90.7801 0.0553343 89.2742 0.175892C51.2015 3.23757 61.3004 43.4236 60.7347 56.8784C60.0383 66.719 58.0422 74.4749 51.2668 84.0944C43.3099 93.5482 32.1023 108.852 26.7951 124.783C24.2911 132.3 23.0995 139.963 24.1981 147.216C23.8537 147.525 23.5269 147.85 23.2126 148.181C20.8771 150.675 19.1499 153.694 17.2267 155.726C15.4291 157.519 12.8698 158.2 10.0541 159.207C7.23838 160.217 4.14861 161.703 2.27314 165.3C2.27314 165.3 2.27314 165.303 2.27062 165.303C2.26811 165.308 2.26559 165.315 2.26057 165.32C1.37814 166.965 1.09154 168.741 1.09154 170.542C1.09154 172.207 1.33791 173.895 1.5868 175.52C2.1047 178.901 2.63013 182.098 1.93374 184.263C-0.293703 190.349 -0.580304 194.556 0.98846 197.61C2.56225 200.669 5.7928 202.018 9.44571 202.781C16.7515 204.303 26.6443 203.927 34.4403 208.056C34.4403 208.056 35.1116 206.792 35.1116 206.792C35.1116 206.792 34.4479 208.058 34.4479 208.058C42.7945 212.418 51.2568 213.966 58.007 212.426C62.9044 211.311 66.8765 208.398 68.918 203.917C74.1974 203.892 79.9923 201.656 89.2742 201.147C95.5719 200.639 103.438 203.382 112.486 202.879C112.723 203.859 113.065 204.803 113.532 205.7C113.537 205.707 113.542 205.717 113.548 205.725C117.054 212.732 123.571 215.937 130.517 215.39C137.471 214.842 144.865 210.746 150.843 203.64C150.843 203.64 149.747 202.721 149.747 202.721C149.747 202.721 150.851 203.63 150.851 203.63C156.548 196.728 166.003 193.868 172.276 190.09C175.411 188.201 177.953 185.836 178.151 182.4C178.347 178.966 176.328 175.118 171.687 169.972C171.687 169.972 171.687 169.972 171.687 169.972Z" fill="#202020" transform="translate(0.251 0.251)" />
        <path id="path5" d="M60.3127 35.5423C60.1921 37.6618 58.656 39.2369 55.8176 40.9448C50.1457 44.3631 40.092 47.3369 33.6739 55.1053C28.0975 61.7336 21.2995 65.3729 15.3139 65.8451C9.32818 66.3173 4.16406 63.8358 1.11704 57.73C1.11704 57.73 1.11176 57.7175 1.11176 57.7175C1.11176 57.7175 1.10448 57.7021 1.10448 57.7021C-0.786339 54.1105 0.000556946 48.4468 1.59195 42.4694C3.18333 36.4942 5.47112 30.3558 5.77783 25.3702C5.77783 25.3702 5.77783 25.3549 5.77783 25.3549C6.09937 18.9655 6.45914 13.3845 7.53239 9.07703C8.60839 4.76958 10.3003 1.85609 13.2973 0.216003C13.4381 0.140656 13.5761 0.0678101 13.7144 0C14.0541 5.53313 16.7969 11.1795 21.6437 12.3999C26.9486 13.7966 34.5938 9.25034 37.8218 5.54065C38.4677 5.51527 39.0962 5.48289 39.7074 5.46782C42.5407 5.39975 44.914 5.56326 47.3425 7.68307C47.3425 7.68307 47.3498 7.69035 47.3498 7.69035C47.3498 7.69035 47.3574 7.69563 47.3574 7.69563C49.2228 9.27544 50.1103 12.2593 50.8796 15.5997C51.6491 18.9429 52.2623 22.582 54.5704 25.1766C54.5704 25.1766 54.5729 25.1791 54.5729 25.1791C54.5729 25.1791 54.5755 25.1843 54.5755 25.1843C59.0105 30.0996 60.4359 33.42 60.3127 35.5423C60.3127 35.5423 60.3127 35.5423 60.3127 35.5423Z" fill="#F8BF11" transform="translate(115.228 146.945)" />
        <path id="path7" d="M64.6158 50.7929L64.6133 50.808C64.6133 50.808 64.6133 50.8255 64.6133 50.8255C64.1004 57.5416 60.3093 61.1986 54.4867 62.5272C48.6692 63.8559 40.7776 62.5325 32.8986 58.4157C32.8961 58.4157 32.8936 58.4132 32.8911 58.4132C24.1724 53.7993 13.8019 54.2589 7.14727 52.87C3.82119 52.1768 1.64905 51.132 0.653494 49.193C-0.342068 47.2515 -0.364695 43.8683 1.75213 38.0991C1.75213 38.0991 1.76219 38.0738 1.76219 38.0738C1.76219 38.0738 1.76973 38.0486 1.76973 38.0486C2.81809 34.8212 2.04125 31.2899 1.53341 27.9745C1.02557 24.6619 0.776682 21.6455 1.91052 19.5455C1.91052 19.5455 1.92057 19.5254 1.92057 19.5254C3.37118 16.7325 5.49806 15.7328 8.13781 14.7885C10.7801 13.8416 13.9101 13.0984 16.3814 10.6217C16.3814 10.6217 16.3964 10.6091 16.3964 10.6091C16.3964 10.6091 16.409 10.5966 16.409 10.5966C18.6943 8.1879 20.4114 5.16643 22.4201 3.02399C24.1146 1.21562 25.8115 0.0175781 28.3683 0C28.3985 0.00276184 28.4262 0.00276184 28.4563 0C28.9038 0.00276184 29.379 0.0401764 29.8818 0.118301C33.2757 0.630661 36.2348 3.0014 39.0857 6.86429C39.0857 6.86429 47.3167 21.8512 47.3167 21.8512L47.3192 21.8587C47.3192 21.8587 47.3242 21.8637 47.3242 21.8637C49.514 26.4324 54.1398 31.4582 58.0592 36.5844C61.9786 41.7083 65.0105 46.8547 64.6158 50.7929C64.6158 50.7929 64.6158 50.7929 64.6158 50.7929Z" fill="#F8BF11" transform="translate(3.135 147.362)" />
        <path id="path9" d="M44.4536 11.1467C43.7924 9.85323 42.4423 8.62254 40.1445 7.68068C40.1445 7.68068 40.1395 7.67816 40.1395 7.67816C40.1395 7.67816 40.132 7.67565 40.132 7.67565C35.3527 5.63119 33.2787 5.48551 30.6113 3.75249C26.2695 0.964584 22.682 -0.0124397 19.7003 0.000118256C18.1391 0.00514221 16.7438 0.281422 15.4943 0.713421C11.8615 1.9617 9.45054 4.56626 7.93961 5.99537C7.93961 5.99537 7.93709 5.99788 7.93709 5.99788C7.93709 6.00039 7.93457 6.00039 7.93457 6.00291C7.63792 6.28421 7.25578 6.5404 6.33061 7.21854C5.3979 7.89919 4.00009 8.92393 1.98885 10.4309C0.20137 11.7696 -0.379375 13.5127 0.239082 15.5546C0.855026 17.5966 2.82603 19.9525 6.43118 21.9894C6.43118 21.9894 6.4362 21.9944 6.4362 21.9944C6.4362 21.9944 6.44375 21.997 6.44375 21.997C8.68124 23.3105 10.2098 25.0812 11.9646 26.4902C12.842 27.1935 13.7646 27.8214 14.8758 28.2961C15.9871 28.7708 17.2843 29.0923 18.9084 29.1877C22.7197 29.4088 25.5253 28.266 28.0017 26.8494C30.483 25.4354 32.5845 23.7049 34.9958 22.9237C34.9958 22.9237 35.0008 22.9212 35.0008 22.9212C35.0008 22.9212 35.0061 22.9187 35.0061 22.9187C39.9484 21.3766 43.4734 18.2697 44.5768 15.3185C45.1299 13.8417 45.1123 12.4402 44.4536 11.1467C44.4536 11.1467 44.4536 11.1467 44.4536 11.1467Z" fill="#F8BF11" transform="translate(64.347 47.296)" />
        <path id="path11" d="M29.4339 7.16063C25.5017 9.20828 20.9087 11.6916 16.0214 11.6916C11.1367 11.6916 7.2776 9.43616 4.50209 7.23849C3.11433 6.14091 1.98804 5.04835 1.1383 4.25467C-0.336029 3.09203 -0.159424 1.46132 0.446312 1.50946C1.46164 1.6361 1.61516 2.97166 2.25453 3.569C3.11936 4.37774 4.20292 5.42509 5.51525 6.4649C8.13992 8.54202 11.6395 10.5639 16.0214 10.5639C20.3959 10.5639 25.5023 7.99821 28.6193 6.25142C30.3852 5.26178 32.6323 3.48785 34.4661 2.14304C35.8692 1.11416 35.818 -0.124756 36.9764 0.010128C38.1349 0.145016 37.2779 1.38144 35.6556 2.79591C34.0333 4.21038 31.4953 6.08714 29.4339 7.16063C29.4339 7.16063 29.4339 7.16063 29.4339 7.16063Z" fill="#202020" transform="translate(66.826 58.571)" />
        <path id="path4166" d="M39.7867 0C22.2053 0.0632553 6.43278 15.9946 0 40.1875C0 40.1875 0.942768 40.7737 0.942768 40.7737C0.942768 40.7737 0.942768 40.8267 0.942768 40.8267C8.20142 45.4311 13.3709 50.0506 16.5657 54.3699C16.5657 54.3699 16.5657 54.3704 16.5657 54.3704C16.5657 54.3704 16.5662 54.3704 16.5662 54.3704C19.9432 58.9388 21.446 63.3884 20.0151 67.2361C20.0151 67.2361 20.0146 67.2376 20.0146 67.2376C20.0146 67.2376 20.0142 67.239 20.0142 67.239C19.2897 69.1793 17.7464 70.7341 15.8341 71.6035C15.8341 71.6035 15.8306 71.605 15.8306 71.605C15.8306 71.605 15.8277 71.6064 15.8277 71.6064C15.6267 71.6971 15.412 71.7642 15.2036 71.8419C16.3475 73.3411 17.4679 74.8857 18.5003 76.4722C33.0787 86.1652 50.0377 82.579 62.7652 73.8095C64.0082 69.5303 65.1403 65.5399 65.2959 63.0453C65.6182 56.6354 65.9418 50.8298 67.2021 45.772C67.2021 45.772 67.2021 45.7715 67.2021 45.7715C68.4723 40.6791 70.9431 36.0449 75.6016 33.4959C75.6016 33.4959 75.604 33.4944 75.604 33.4944C75.604 33.4944 75.607 33.493 75.607 33.493C75.8688 33.3506 76.1316 33.2674 76.3941 33.1437C76.4781 32.6401 76.5947 32.1553 76.7363 31.6877C69.1101 12.1573 55.0391 0.0900345 39.7867 1.52588e-05C39.7867 1.52588e-05 39.7867 0 39.7867 0ZM76.3676 33.2452C76.3676 33.2452 76.3543 33.3227 76.3543 33.3227C76.3556 33.3139 76.3589 33.3061 76.3602 33.2972C76.3633 33.2802 76.3644 33.2622 76.3676 33.2452C76.3676 33.2452 76.3676 33.2452 76.3676 33.2452Z" fill="#E6E6E6" transform="translate(50.341 108.953)" />
        <path id="path15" d="M21.4257 13.6607C21.4458 16.195 21.0084 18.3525 20.0455 20.5552C19.4975 21.811 18.8667 22.8659 18.1099 23.7801C17.8533 23.657 17.587 23.539 17.3102 23.4259C16.3524 23.0166 15.5051 22.68 14.7462 22.3937C13.9867 22.1073 13.3941 21.9117 12.783 21.7007C13.2257 21.1657 14.0978 20.5353 14.4224 19.7442C14.9151 18.5511 15.1565 17.3857 15.2017 15.9968C15.2017 15.9416 15.2193 15.8938 15.2193 15.8285C15.247 14.4974 15.071 13.3596 14.6813 12.1942C14.274 10.9711 13.7559 10.092 13.007 9.3611C12.2553 8.63021 11.5061 8.29868 10.606 8.26854C10.5633 8.26603 10.5231 8.26603 10.4803 8.26603C9.63563 8.26854 8.90153 8.55989 8.14204 9.19282C7.34508 9.8584 6.75429 10.7098 6.26178 11.8953C5.77154 13.0808 5.53019 14.2563 5.48217 15.6527C5.47488 15.708 5.47488 15.7557 5.47488 15.811C5.45728 16.5795 5.50757 17.2828 5.62572 17.9659C3.89606 17.1045 1.68317 16.4763 0.15464 16.1121C0.0666504 15.4515 0.0163727 14.7709 0.00128937 14.0576C0.00128937 14.0576 0.00128937 13.8642 0.00128937 13.8642C-0.0263596 11.3375 0.388451 9.16995 1.36139 6.96977C2.33432 4.76707 3.53855 3.18474 5.23277 1.89628C6.92974 0.610325 8.59681 0.0200939 10.5701 0C10.5701 0 10.6631 0 10.6631 0C12.5939 0 14.2456 0.567629 15.9426 1.79581C17.6647 3.04661 18.9067 4.60884 19.9072 6.79395C20.8877 8.92381 21.3604 11.006 21.4084 13.4749C21.4081 13.5402 21.4081 13.5954 21.4257 13.6607C21.4257 13.6607 21.4257 13.6607 21.4257 13.6607Z" fill="#FFFFFF" transform="translate(87.812 30.049)" />
        <path id="path17" d="M15.4334 14.0902C15.1795 14.1631 14.9331 14.2409 14.6892 14.3238C13.3065 14.801 12.2087 15.3277 11.1477 16.0284C11.2508 15.295 11.2659 14.5516 11.1855 13.7202C11.1779 13.675 11.1779 13.6374 11.1779 13.5921C11.0673 12.4895 10.8335 11.5653 10.4438 10.6309C10.029 9.65894 9.56389 8.97326 8.95298 8.44582C8.39989 7.96861 7.87697 7.74759 7.29874 7.75261C7.24091 7.75261 7.18058 7.75512 7.12025 7.76015C6.47163 7.8154 5.93362 8.13187 5.42326 8.75224C4.91543 9.3701 4.58106 10.1387 4.33971 11.1584C4.09837 12.1756 4.03551 13.1752 4.13608 14.323C4.13608 14.3682 4.14613 14.4059 4.14613 14.4511C4.25675 15.5638 4.4805 16.4881 4.87772 17.4224C5.285 18.3843 5.75764 19.07 6.36855 19.5975C6.47163 19.6854 6.57219 19.7657 6.67274 19.8361C6.03921 20.3258 5.61355 20.6732 5.09062 21.055C4.75626 21.2986 4.35903 21.59 3.89645 21.9315C2.88831 20.9872 2.10142 19.8017 1.41257 18.2369C0.598022 16.3884 0.163086 14.5373 0.0323639 12.3522C0.0323639 12.3522 0.0323639 12.3346 0.0323639 12.3346C-0.0883179 10.1495 0.125381 8.27079 0.726242 6.32679C1.32961 4.38279 2.13411 2.97628 3.30314 1.82093C4.46966 0.663071 5.64623 0.0803757 7.06415 0.00753403C7.17477 0.00251389 7.28287 0 7.39097 0C8.67564 0.00251389 9.82205 0.429489 11.0087 1.37637C12.2959 2.40363 13.2688 3.71721 14.0834 5.56828C14.9004 7.41935 15.3354 9.27042 15.456 11.4555C15.456 11.4555 15.456 11.4731 15.456 11.4731C15.5139 12.3899 15.5063 13.2539 15.4334 14.0902C15.4334 14.0902 15.4334 14.0902 15.4334 14.0902Z" fill="#FFFFFF" transform="translate(64.621 32.144)" />
        <path id="path28396-7" d="M0.00989532 0.688534C0.172516 1.21001 1.01376 1.12358 1.49979 1.37368C1.92628 1.59315 2.26931 2.07415 2.74885 2.08799C3.20651 2.1012 3.91879 1.92965 3.97832 1.47612C4.05698 0.87693 3.18116 0.496162 2.61758 0.276653C1.89236 -0.00583267 0.963196 -0.149155 0.28289 0.228748C0.126999 0.315342 -0.0431519 0.518406 0.00990295 0.688538C0.00990295 0.688538 0.00989532 0.688534 0.00989532 0.688534Z" fill="#202020" transform="translate(86.495 50.772)" />
        <path id="path5461" d="M3.97337 0.688534C3.81075 1.21001 2.96951 1.12358 2.48347 1.37368C2.05698 1.59315 1.71396 2.07415 1.23442 2.08799C0.776756 2.1012 0.0644836 1.92965 0.00495148 1.47612C-0.0737076 0.87693 0.802109 0.496162 1.36568 0.276653C2.09091 -0.00583267 3.02007 -0.149155 3.70038 0.228748C3.85627 0.315342 4.02642 0.518406 3.97337 0.688538C3.97337 0.688538 3.97337 0.688534 3.97337 0.688534Z" fill="#202020" transform="translate(77.563 50.772)" />
        <path id="path13" d="M119.111 84.1016C118.566 84.0815 118.028 84.0843 117.505 84.0966C117.457 84.0991 117.409 84.0991 117.359 84.0991C118.709 79.8394 115.722 76.6974 107.763 73.1007C99.5092 69.4742 92.9325 69.8331 91.8213 77.1921C91.7509 77.5764 91.6931 77.9707 91.6503 78.3676C91.0319 78.5836 90.4134 78.8548 89.7899 79.1939C85.9158 81.3137 83.799 85.1565 82.6224 89.8736C81.4483 94.5854 81.1089 100.279 80.7871 106.681C80.7871 106.684 80.7871 106.684 80.7871 106.686C80.5885 109.904 79.2611 114.259 77.9186 118.871C64.3981 128.507 45.6333 132.682 29.6992 121.816C28.6207 120.111 27.3813 118.421 26.1067 116.753C25.2921 115.688 24.4549 114.631 23.6253 113.586C25.2594 113.589 26.6497 113.32 27.7735 112.813C29.1713 112.177 30.1518 111.162 30.6395 109.856C31.6099 107.247 30.6345 103.564 27.5246 99.3575C24.4147 95.153 19.1478 90.4086 11.4096 85.6666C11.4096 85.6666 11.4096 85.6666 11.4096 85.6641C5.7228 82.1302 2.54504 77.7999 1.05673 73.0984C-0.434097 68.3941 -0.225433 63.3081 0.923485 58.2873C3.12579 48.6502 8.78239 39.2768 12.3926 33.3946C13.363 32.6813 12.7395 34.7207 8.73714 42.1451C5.15211 48.9318 -1.55285 64.594 7.62593 76.8209C7.87231 68.1204 9.95142 59.2468 13.4434 50.9459C18.5293 39.43 29.1663 19.4551 30.011 3.53636C30.4484 3.85283 31.9443 4.8625 32.6105 5.24176C32.613 5.24427 32.613 5.24427 32.6155 5.24427C34.5664 6.39209 36.0321 8.06985 37.9302 9.59441C39.8334 11.1215 42.2091 12.4401 45.7992 12.6486C46.1436 12.6686 46.4805 12.6787 46.8098 12.6787C50.5105 12.6787 53.3966 11.4731 55.8 10.0993C58.4124 8.60735 60.4988 6.9547 62.4776 6.31172C62.4801 6.30921 62.4826 6.30921 62.4851 6.30921C66.666 5.00316 69.9871 2.69247 71.8774 0C75.1255 12.7892 82.6777 31.2622 87.5326 40.2765C90.1145 45.0586 95.2479 55.2206 97.4656 67.4649C98.8709 67.4219 100.42 67.6256 102.076 68.0498C107.876 53.0277 97.1589 36.8503 92.2565 32.3445C90.2779 30.4256 90.1824 29.5666 91.1654 29.6068C96.48 34.3061 103.461 43.7523 106.001 54.4167C107.159 59.2789 107.406 64.3929 106.164 69.4387C106.77 69.6899 107.388 69.9637 108.014 70.2603C117.324 74.7885 120.765 78.7268 119.111 84.1016C119.111 84.1016 119.111 84.1016 119.111 84.1016Z" fill="#FFFFFF" transform="translate(37.36 65.458)" />
      </g>
    </g>
    <g clip-path="url(#clip_path_2)" transform="translate(68 101)">
      <rect width="120" height="120" />
      <path id="Shape" d="M116.917 1.62804C114.973 0.15056 112.452 -0.331936 110.102 0.319571C110.102 0.319571 70.42 11.3052 70.42 11.3052C69.1933 11.646 67.9258 11.8177 66.6473 11.815C66.6473 11.815 53.3091 11.785 53.3091 11.785C52.0579 11.7823 50.8121 11.6133 49.6072 11.278C49.6072 11.278 9.89528 0.281406 9.89528 0.281406C7.54276 -0.372826 5.02669 0.131479 3.08035 1.60896C1.13673 3.08643 0 5.40623 0 7.84871C0 7.84871 0 65.931 0 65.931C0 69.442 2.33616 72.4651 5.71909 73.4083C5.71909 73.4083 49.5991 85.5443 49.5991 85.5443C50.8121 85.8824 52.0688 86.0541 53.3309 86.0541C53.3309 86.0541 66.6718 86.0541 66.6718 86.0541C67.9339 86.0541 69.1879 85.8824 70.4009 85.5443C70.4009 85.5443 114.281 73.4083 114.281 73.4083C117.664 72.4651 120.003 69.442 120.003 65.931C120.003 65.931 120.003 7.84871 120.003 7.84871C119.997 5.40623 118.863 3.10551 116.917 1.62804C116.917 1.62804 116.917 1.62804 116.917 1.62804ZM66.6064 74.695C66.6064 75.8562 65.6659 76.7967 64.5047 76.7967C64.5047 76.7967 55.4899 76.7967 55.4899 76.7967C54.3286 76.7967 53.3882 75.8562 53.3882 74.695C53.3882 74.695 53.3882 58.8107 53.3882 58.8107C53.3882 57.6495 54.3286 56.709 55.4899 56.709C55.4899 56.709 64.5047 56.709 64.5047 56.709C65.6659 56.709 66.6064 57.6495 66.6064 58.8107C66.6064 58.8107 66.6064 74.695 66.6064 74.695C66.6064 74.695 66.6064 74.695 66.6064 74.695ZM66.6064 48.0023C66.6064 49.1635 65.6659 50.104 64.5047 50.104C64.5047 50.104 55.4899 50.104 55.4899 50.104C54.3286 50.104 53.3882 49.1635 53.3882 48.0023C53.3882 48.0023 53.3882 38.9902 53.3882 38.9902C53.3882 37.8289 54.3286 36.8885 55.4899 36.8885C55.4899 36.8885 64.5047 36.8885 64.5047 36.8885C65.6659 36.8885 66.6064 37.8289 66.6064 38.9902C66.6064 38.9902 66.6064 48.0023 66.6064 48.0023C66.6064 48.0023 66.6064 48.0023 66.6064 48.0023ZM66.6064 27.9146C66.6064 29.0758 65.6659 30.0163 64.5047 30.0163C64.5047 30.0163 55.4899 30.0163 55.4899 30.0163C54.3286 30.0163 53.3882 29.0758 53.3882 27.9146C53.3882 27.9146 53.3882 23.3949 53.3882 23.3949C53.3882 22.2337 54.3286 21.2932 55.4899 21.2932C55.4899 21.2932 64.5047 21.2932 64.5047 21.2932C65.6659 21.2932 66.6064 22.2337 66.6064 23.3949C66.6064 23.3949 66.6064 27.9146 66.6064 27.9146C66.6064 27.9146 66.6064 27.9146 66.6064 27.9146Z" fill="#202020" stroke-width="2" stroke="#686868" transform="translate(0 16.974)" />
      <g transform="matrix(0.999 0.052 -0.052 0.999 12.806 42.236)">
        <rect width="30" height="30" fill="#202020" fill-rule="evenodd" />
        <path id="Path" d="M0 18.75L8.04918 10.7008L0 2.65164L2.65165 0L13.3525 10.7008L2.65165 21.4016L0 18.75L0 18.75Z" fill="#FFFFFF" transform="translate(1.486 4.299)" />
        <path id="Path" d="M0 3.75L15.0001 3.75L15.0001 0L0 0L0 3.75L0 3.75Z" fill="#FFFFFF" transform="translate(13.125 24.375)" />
      </g>
    </g>
  </g>
</svg>